<svg width="40" height="40" viewBox="0 0 40 40" fill="none" xmlns="http://www.w3.org/2000/svg">
<path d="M20 40C8.95375 40 0 31.0462 0 20C0 8.95375 8.95375 0 20 0C31.0462 0 40 8.95375 40 20C40 25.3043 37.8929 30.3914 34.1421 34.1421C30.3914 37.8929 25.3043 40 20 40ZM20 2.5C10.335 2.5 2.5 10.335 2.5 20C2.5 29.665 10.335 37.5 20 37.5C29.665 37.5 37.5 29.665 37.5 20C37.5 15.3587 35.6563 10.9075 32.3744 7.62563C29.0925 4.34374 24.6413 2.5 20 2.5Z" fill="#2ED6A4"/>
<path d="M28.75 18.75H21.25V11.25H18.75V18.75H11.25V21.25H18.75V28.75H21.25V21.25H28.75V18.75Z" fill="#2ED6A4"/>
</svg>
