<svg width="305" height="55" viewBox="0 0 305 55" fill="none" xmlns="http://www.w3.org/2000/svg">
<path fill-rule="evenodd" clip-rule="evenodd" d="M8.5791 1.00056C8.70888 1.00316 8.83964 1.01043 8.97168 1.02497C11.0871 1.25767 12.6776 2.77639 13.8828 5.29841C14.8488 7.31967 15.6257 10.1185 16.1299 13.941C21.2917 11.0694 26.4085 10.101 31.4883 10.5816L35.8359 2.77595L39.8604 12.0406L47.9756 8.1656L48.1064 16.3619L55.6113 16.5894L53.5918 20.5611C56.4132 22.6725 59.2276 25.0325 62.0391 27.5592L77 21.6617L69.7666 31.5279L75.6445 36.609L69.7969 36.9703L76.3203 44.7525L58.9014 36.317L44.7871 41.8443L52.8066 44.1021L47.0732 45.898L52.3223 48.7857L43.915 48.9117L44.6553 54.9996L35.0947 45.6383L21.1367 51.1041L0.00976562 29.3756C0.615125 28.5398 1.23844 27.7117 1.87891 26.8931L21.8828 47.2906L30.123 43.9595L28.7734 41.7877L22.7236 44.232L3.61621 24.7535C6.86553 20.9025 10.0948 17.9178 13.3037 15.6998C12.8266 11.2132 11.9957 8.1158 11.0664 6.17146C10.0414 4.026 8.99016 3.48056 8.56836 3.43415C8.35791 3.41102 8.14427 3.43981 7.80273 3.63239C7.46135 3.82539 7.04568 4.1904 6.67383 4.69685C5.93532 5.7031 5.38388 7.23942 5.34961 8.81501C5.99771 9.05969 6.54603 9.44903 6.92969 9.9361C7.31319 10.4231 7.51643 10.9882 7.51562 11.565C7.51562 13.2387 5.83345 14.5952 3.75781 14.5953C1.68213 14.5953 0 13.2388 0 11.565C0.000134011 10.2977 0.967303 9.21055 2.33691 8.75837C2.38278 6.77911 3.01824 4.90892 4.08008 3.46247C4.61556 2.73269 5.26456 2.10089 6.0752 1.64314C6.68282 1.29981 7.41634 1.05942 8.19043 1.00935C8.31938 1.0009 8.44918 0.998088 8.5791 1.00056ZM36.7422 27.0357L38.1729 30.9263L32.7832 34.484L34.6924 36.3648L41.6328 31.7838L41.3467 31.0074L39.6338 26.3453L36.7422 27.0357ZM29.5039 23.6968L31.5586 29.2935L23.9121 34.3424L25.8213 36.2222L34.2432 30.6627L35.0137 30.1509L34.7324 29.3795L32.3896 23.0064L29.5039 23.6968ZM17.0166 21.5562C16.5093 21.54 15.9909 21.5873 15.4746 21.6988C14.9955 21.8023 14.5372 21.9606 14.1143 22.1695C14.1367 22.1695 14.1575 22.1656 14.1797 22.1656C15.779 22.1656 17.0771 23.0286 17.0771 24.0914C17.0766 25.1539 15.7789 26.0162 14.1797 26.0162C13.1317 26.0161 12.2201 25.6446 11.7119 25.0904C11.608 25.6413 11.6377 26.2186 11.8281 26.7916C12.5656 29.0106 15.3917 30.3275 18.1445 29.733C20.8967 29.1383 22.534 26.8584 21.7969 24.6392C21.1978 22.8364 19.2141 21.6268 17.0166 21.5562Z" fill="#2ED6A4"/>
<path d="M280.582 22.5523C280.948 22.557 281.312 22.5825 281.675 22.6109C281.704 22.6446 281.754 22.6917 281.817 22.8345C281.968 23.1759 282.111 23.743 282.176 24.3648C282.306 25.6085 282.074 27.1101 281.696 27.7242C281.799 27.5576 281.428 27.9416 280.742 28.1861C280.056 28.4307 279.091 28.6538 278.006 28.7759C276.704 28.9228 275.227 28.9173 273.793 28.6939C274.271 28.4151 274.699 28.1395 275.035 27.8863C275.909 27.228 276.376 26.649 276.376 26.649L277.54 25.1695L275.603 24.8922C275.596 24.8911 274.24 24.6843 272.702 23.7984C275.386 23.057 278.017 22.519 280.582 22.5523Z" fill="#2ED6A4"/>
<path d="M290.032 21.0162C290.715 21.0163 291.295 21.3675 291.584 21.8912C291.392 21.8309 291.189 21.8001 290.985 21.7994C290.505 21.7995 290.045 21.9691 289.705 22.2701C289.366 22.5711 289.175 22.9792 289.175 23.4049C289.176 23.6817 289.257 23.9542 289.411 24.1949C288.746 23.9643 288.283 23.371 288.283 22.6578C288.283 21.7384 289.053 21.0162 290.032 21.0162Z" fill="#2ED6A4"/>
<path fill-rule="evenodd" clip-rule="evenodd" d="M261.721 0.000557634C273.415 -0.0475748 287.671 4.03882 297.307 21.7652C298.553 23.8886 301.74 23.6431 303.957 24.105C305.64 24.3253 305.021 26.2992 303.957 26.5328C301.79 27.0088 298.978 27.1829 298.323 29.0465C295.667 35.3185 292.491 37.9118 288.957 39.9674C286.904 47.7965 278.867 52.99 266.281 53.9996C266.601 52.2201 277.584 48.7523 280.003 44.0396C263.363 50.6323 257.878 46.8166 255.816 46.2935C262.159 46.3417 267.878 45.6721 270.431 41.3551C268.431 35.7702 265.785 31.3699 265.755 26.0689C265.745 24.4203 265.711 23.289 265.865 22.1373C265.878 21.9478 265.894 21.7581 265.912 21.5689C265.926 21.5798 265.938 21.5914 265.951 21.6021C266.301 19.7176 267.226 17.5632 269.622 12.8922C270.28 6.66578 266.74 0.987937 243 3.01814C246.017 2.27255 253.187 0.0363834 261.721 0.000557634ZM280.619 20.3297C276.928 20.2756 273.333 21.2238 269.831 22.2984L268.006 22.859L269.36 24.1373C270.612 25.3187 271.989 26.0324 273.101 26.4674C272.411 26.9282 271.453 27.452 270.144 27.899L267.438 28.8228L270.054 29.9517C272.747 31.1141 275.779 31.2646 278.288 30.982C279.542 30.8406 280.666 30.5893 281.582 30.2623C282.499 29.9354 283.244 29.6513 283.746 28.8355C284.588 27.4664 284.696 25.7215 284.531 24.148C284.449 23.3613 284.287 22.6264 284.005 21.9859C283.723 21.3451 283.321 20.6336 282.334 20.4351L282.271 20.4224L282.207 20.4166C281.676 20.3654 281.146 20.3373 280.619 20.3297ZM290.032 18.7945C287.773 18.7945 285.916 20.5375 285.916 22.6578C285.916 24.7781 287.773 26.5211 290.032 26.5211C292.291 26.5208 294.147 24.7779 294.147 22.6578C294.147 20.5377 292.291 18.7948 290.032 18.7945Z" fill="#2ED6A4"/>
<path fill-rule="evenodd" clip-rule="evenodd" d="M121.951 20.0972C122.699 20.0972 123.451 20.2203 124.207 20.4664C124.973 20.7033 125.693 21.0589 126.367 21.5328L126.914 20.3433H132.082V36.3394H134.064V40.441H123.537V36.3394H125.52V33.5367C124.116 34.676 122.63 35.2457 121.062 35.2457C119.85 35.2457 118.788 34.9358 117.877 34.316C116.975 33.6962 116.273 32.8211 115.771 31.691C115.27 30.5517 115.02 29.2208 115.02 27.6988C115.02 26.1404 115.298 24.7957 115.854 23.6656C116.409 22.5264 117.207 21.6467 118.246 21.0269C119.285 20.4072 120.52 20.0972 121.951 20.0972ZM123.66 24.1851C122.949 24.1851 122.407 24.4952 122.033 25.1148C121.669 25.7345 121.486 26.5916 121.486 27.6851C121.486 28.7787 121.664 29.6311 122.02 30.2418C122.384 30.8524 122.885 31.1578 123.523 31.1578C123.87 31.1578 124.225 31.0985 124.59 30.98C124.963 30.8525 125.273 30.702 125.52 30.5289V24.7183C124.991 24.3629 124.371 24.1851 123.66 24.1851Z" fill="#2ED6A4"/>
<path d="M249.292 14.5855C252.911 14.6069 259.469 17.1058 263.729 19.9722C263.039 24.3431 263.658 28.7108 264.626 32.9986C258.818 35.8627 250.225 38.9323 249.281 37.5406C253.806 34.6887 257.283 32.0732 256.208 30.2593C255.32 29.0834 249.295 25.9987 249.374 25.5357C249.582 24.3174 256.987 23.6985 256.947 21.4185C256.891 20.1819 254.288 18.6147 247.32 14.9927C247.778 14.7079 248.457 14.5806 249.292 14.5855Z" fill="#2ED6A4"/>
<path d="M152.59 30.898H154.504V34.9996H146.164V33.4C145.617 33.9833 144.965 34.439 144.209 34.7672C143.462 35.0953 142.6 35.2593 141.625 35.2593C138.253 35.2593 136.566 33.3635 136.566 29.5718V24.6226H134.652V20.8902L143.129 20.0836V29.5855C143.129 30.1413 143.252 30.5425 143.498 30.7886C143.744 31.0347 144.059 31.1578 144.441 31.1578C145.125 31.1578 145.654 30.8069 146.027 30.105V24.6226H144.797V20.8902L152.59 20.0836V30.898Z" fill="#2ED6A4"/>
<path fill-rule="evenodd" clip-rule="evenodd" d="M182.805 21.8062C184.208 20.667 185.694 20.0972 187.262 20.0972C188.474 20.0972 189.531 20.4072 190.434 21.0269C191.345 21.6467 192.051 22.5219 192.553 23.6519C193.054 24.782 193.305 26.113 193.305 27.6441C193.305 29.2026 193.027 30.5517 192.471 31.691C191.915 32.8302 191.117 33.7099 190.078 34.3297C189.048 34.9495 187.813 35.2593 186.373 35.2593C185.626 35.2593 184.869 35.1409 184.104 34.9039C183.347 34.6578 182.631 34.2977 181.957 33.8238L181.41 35.0133L176.242 34.9996V18.2925H174.465V14.5601L182.805 13.6715V21.8062ZM184.801 24.1851C184.464 24.1851 184.108 24.2444 183.734 24.3629C183.361 24.4813 183.051 24.6318 182.805 24.814V30.6383C183.342 30.9937 183.962 31.1715 184.664 31.1715C185.375 31.1715 185.913 30.8616 186.277 30.2418C186.651 29.622 186.838 28.7605 186.838 27.6578C186.838 26.5642 186.66 25.7117 186.305 25.1011C185.949 24.4907 185.448 24.1851 184.801 24.1851Z" fill="#2ED6A4"/>
<path fill-rule="evenodd" clip-rule="evenodd" d="M163.869 20.0972C166.594 20.0972 168.586 20.5531 169.844 21.4644C171.101 22.3758 171.73 23.839 171.73 25.8531V30.898H173.508V34.9996H166.043L165.373 32.8531C164.945 33.6004 164.334 34.1884 163.541 34.6168C162.757 35.036 161.882 35.2457 160.916 35.2457C159.977 35.2457 159.139 35.0588 158.4 34.6851C157.671 34.3023 157.097 33.7782 156.678 33.1129C156.268 32.4476 156.062 31.6817 156.062 30.816C156.063 29.4672 156.582 28.3914 157.621 27.5894C158.66 26.7874 160.046 26.3863 161.777 26.3863C162.379 26.3863 162.953 26.4228 163.5 26.4957C164.047 26.5686 164.603 26.6917 165.168 26.8648V26.564C165.168 25.7348 164.913 25.133 164.402 24.7593C163.901 24.3857 163.094 24.1988 161.982 24.1988C161.18 24.1988 160.369 24.3036 159.549 24.5133C158.729 24.7229 157.981 25.0146 157.307 25.3883L156.938 25.2242V21.232C157.894 20.8583 158.979 20.5757 160.191 20.3843C161.413 20.1929 162.639 20.0972 163.869 20.0972ZM163.828 28.7242C163.363 28.7242 162.971 28.861 162.652 29.1343C162.343 29.4077 162.188 29.7726 162.188 30.2281C162.188 30.6928 162.333 31.0621 162.625 31.3355C162.917 31.609 163.299 31.7457 163.773 31.7457C164.02 31.7457 164.275 31.7047 164.539 31.6226C164.812 31.5315 165.022 31.413 165.168 31.2672V28.984C164.94 28.8837 164.708 28.8153 164.471 28.7789C164.243 28.7424 164.029 28.7242 163.828 28.7242Z" fill="#2ED6A4"/>
<path fill-rule="evenodd" clip-rule="evenodd" d="M214.975 20.0972C216.533 20.0972 217.869 20.3844 218.98 20.9586C220.092 21.5236 220.94 22.3168 221.523 23.3375C222.116 24.3491 222.412 25.5206 222.412 26.8511C222.412 27.1609 222.398 27.4619 222.371 27.7535C222.344 28.0359 222.312 28.2959 222.275 28.5328H213.484C213.639 29.4624 214.059 30.1324 214.742 30.5425C215.435 30.9436 216.278 31.1441 217.271 31.1441C218.11 31.1441 218.908 30.9983 219.664 30.7066C220.43 30.4058 221.077 30.0321 221.605 29.5855L221.975 29.7496V33.6734C221.537 33.9742 220.972 34.2431 220.279 34.4801C219.587 34.717 218.835 34.9039 218.023 35.0406C217.221 35.1773 216.424 35.2457 215.631 35.2457C212.924 35.2457 210.8 34.5666 209.26 33.2086C207.729 31.8414 206.963 29.95 206.963 27.5347C206.963 26.0128 207.296 24.6954 207.961 23.5836C208.635 22.4717 209.574 21.6148 210.777 21.0133C211.98 20.4026 213.38 20.0972 214.975 20.0972ZM215.33 23.4605C214.72 23.4605 214.259 23.6977 213.949 24.1715C213.639 24.6453 213.466 25.3064 213.43 26.1539H217.23C217.194 25.3064 217.021 24.6453 216.711 24.1715C216.41 23.6977 215.95 23.4605 215.33 23.4605Z" fill="#2ED6A4"/>
<path d="M230.232 20.0836C231.126 20.0836 231.951 20.1793 232.707 20.3707C233.473 20.5529 234.188 20.8492 234.854 21.2593L235.182 20.3433H238.189V25.0465H234.689C234.452 24.3539 234.111 23.8478 233.664 23.5289C233.227 23.2009 232.753 23.0367 232.242 23.0367C231.349 23.0367 230.903 23.3104 230.902 23.857C230.902 24.2397 231.085 24.5452 231.449 24.773C231.823 24.9918 232.297 25.1832 232.871 25.3472C233.454 25.5113 234.07 25.6982 234.717 25.9078C235.364 26.1174 235.975 26.4 236.549 26.7554C237.132 27.1108 237.606 27.585 237.971 28.1773C238.344 28.7697 238.531 29.5401 238.531 30.4879C238.531 31.937 238.007 33.0947 236.959 33.9605C235.92 34.8173 234.439 35.2457 232.516 35.2457C231.586 35.2457 230.684 35.1363 229.809 34.9176C228.934 34.6988 228.159 34.3843 227.484 33.9742L227.061 34.9996H224.053V29.859H227.553C227.762 30.5698 228.127 31.1305 228.646 31.5406C229.166 31.9508 229.731 32.1558 230.342 32.1558C231.144 32.1558 231.545 31.855 231.545 31.2535C231.545 30.8162 231.363 30.4787 230.998 30.2418C230.643 30.0048 230.178 29.8042 229.604 29.6402C229.038 29.4762 228.437 29.2984 227.799 29.107C227.161 28.9156 226.555 28.6558 225.98 28.3277C225.415 27.9905 224.95 27.5347 224.586 26.9605C224.231 26.3772 224.053 25.616 224.053 24.6773C224.053 23.8298 224.276 23.0594 224.723 22.3668C225.178 21.6742 225.862 21.1226 226.773 20.7125C227.694 20.2932 228.847 20.0836 230.232 20.0836Z" fill="#2ED6A4"/>
<path fill-rule="evenodd" clip-rule="evenodd" d="M111.943 30.2828H113.926V34.9996H101.662V30.2828H103.918L103.289 27.8902H97.6562L96.9453 30.2828H99.2012V34.9996H90.1914V30.2828H92.1738L96.2617 17.9508H93.3223V13.234H106.83L111.943 30.2828ZM98.668 24.4722H102.387L100.65 17.8277L98.668 24.4722Z" fill="#2ED6A4"/>
<path d="M203.668 30.898H205.787V34.9996H194.986V30.898H197.105V24.6226H194.986V20.8902L203.668 20.0836V30.898Z" fill="#2ED6A4"/>
<path d="M200.4 12.9468C201.64 12.9468 202.602 13.2158 203.285 13.7535C203.978 14.2912 204.324 15.048 204.324 16.023C204.324 16.9891 203.969 17.7548 203.258 18.3199C202.556 18.885 201.599 19.1675 200.387 19.1675C199.193 19.1675 198.236 18.8804 197.516 18.3062C196.805 17.732 196.449 16.9708 196.449 16.023C196.449 15.0753 196.805 14.3276 197.516 13.7808C198.227 13.2249 199.188 12.9468 200.4 12.9468Z" fill="#2ED6A4"/>
</svg>
