<svg width="35" height="32" viewBox="0 0 35 32" fill="none" xmlns="http://www.w3.org/2000/svg">
<path d="M17.6708 26.6896L17.5 26.8604L17.3121 26.6896C9.1975 19.3267 3.83333 14.4579 3.83333 9.52083C3.83333 6.10417 6.39583 3.54167 9.8125 3.54167C12.4433 3.54167 15.0058 5.25 15.9113 7.57333H19.0888C19.9942 5.25 22.5567 3.54167 25.1875 3.54167C28.6042 3.54167 31.1667 6.10417 31.1667 9.52083C31.1667 14.4579 25.8025 19.3267 17.6708 26.6896ZM25.1875 0.125C22.215 0.125 19.3621 1.50875 17.5 3.67833C15.6379 1.50875 12.785 0.125 9.8125 0.125C4.55083 0.125 0.416668 4.24208 0.416668 9.52083C0.416668 15.9612 6.225 21.24 15.0229 29.2179L17.5 31.4729L19.9771 29.2179C28.775 21.24 34.5833 15.9612 34.5833 9.52083C34.5833 4.24208 30.4492 0.125 25.1875 0.125Z" fill="#2ED6A4"/>
</svg>
