<svg width="42" height="42" viewBox="0 0 42 42" fill="none" xmlns="http://www.w3.org/2000/svg">
<path fill-rule="evenodd" clip-rule="evenodd" d="M14 15.75C14 17.6065 14.7375 19.387 16.0503 20.6997C17.363 22.0125 19.1435 22.75 21 22.75C22.8565 22.75 24.637 22.0125 25.9497 20.6997C27.2625 19.387 28 17.6065 28 15.75C28 13.8935 27.2625 12.113 25.9497 10.8003C24.637 9.4875 22.8565 8.75 21 8.75C19.1435 8.75 17.363 9.4875 16.0503 10.8003C14.7375 12.113 14 13.8935 14 15.75ZM17.5 15.75C17.5 16.6783 17.8687 17.5685 18.5251 18.2249C19.1815 18.8813 20.0717 19.25 21 19.25C21.9283 19.25 22.8185 18.8813 23.4749 18.2249C24.1313 17.5685 24.5 16.6783 24.5 15.75C24.5 14.8217 24.1313 13.9315 23.4749 13.2751C22.8185 12.6187 21.9283 12.25 21 12.25C20.0717 12.25 19.1815 12.6187 18.5251 13.2751C17.8687 13.9315 17.5 14.8217 17.5 15.75Z" fill="#2ED6A4"/>
<path fill-rule="evenodd" clip-rule="evenodd" d="M21 1.75C31.6312 1.75 40.25 10.3688 40.25 21C40.25 31.6313 31.6312 40.25 21 40.25C10.3687 40.25 1.75 31.6313 1.75 21C1.75 10.3688 10.3687 1.75 21 1.75ZM36.75 21C36.75 24.6575 35.5023 28.0245 33.411 30.6985C31.942 28.7702 30.0472 27.2075 27.8746 26.1323C25.702 25.0571 23.3104 24.4984 20.8863 24.5C18.4933 24.4972 16.1314 25.0409 13.9805 26.0897C11.8297 27.1384 9.94671 28.6645 8.47525 30.5515C6.95897 28.5628 5.93803 26.2416 5.49693 23.78C5.05584 21.3184 5.20724 18.7872 5.93863 16.3957C6.67002 14.0043 7.96037 11.8213 9.7029 10.0276C11.4454 8.2338 13.5901 6.88075 15.9593 6.08039C18.3286 5.28003 20.8544 5.05535 23.3277 5.42495C25.8011 5.79456 28.1509 6.74781 30.1827 8.20584C32.2144 9.66388 33.8698 11.5848 35.0118 13.8096C36.1539 16.0344 36.7497 18.4992 36.75 21ZM21 36.75C24.6157 36.7559 28.1222 35.512 30.926 33.229C29.7976 31.6131 28.2954 30.2937 26.5474 29.3833C24.7993 28.4729 22.8572 27.9983 20.8863 28C18.9399 27.9983 17.0213 28.461 15.2898 29.3498C13.5582 30.2385 12.0638 31.5276 10.9305 33.11C13.7559 35.4673 17.3204 36.7558 21 36.75Z" fill="#2ED6A4"/>
</svg>
