<svg width="41" height="41" viewBox="0 0 41 41" fill="none" xmlns="http://www.w3.org/2000/svg">
<path d="M37.2833 40.375L23.3708 26.4625C22.2667 27.3458 20.9969 28.0451 19.5615 28.5604C18.126 29.0757 16.5986 29.3333 14.9792 29.3333C10.9674 29.3333 7.57242 27.9436 4.79433 25.164C2.01625 22.3844 0.626473 18.9895 0.625001 14.9792C0.623529 10.9688 2.01331 7.57389 4.79433 4.79433C7.57536 2.01478 10.9703 0.625 14.9792 0.625C18.988 0.625 22.3837 2.01478 25.1662 4.79433C27.9487 7.57389 29.3378 10.9688 29.3333 14.9792C29.3333 16.5986 29.0757 18.126 28.5604 19.5615C28.0451 20.9969 27.3458 22.2667 26.4625 23.3708L40.375 37.2833L37.2833 40.375ZM14.9792 24.9167C17.7396 24.9167 20.0863 23.9509 22.0193 22.0193C23.9524 20.0878 24.9181 17.7411 24.9167 14.9792C24.9152 12.2173 23.9494 9.87129 22.0193 7.94121C20.0893 6.01113 17.7425 5.04461 14.9792 5.04167C12.2158 5.03872 9.86982 6.00524 7.94121 7.94121C6.0126 9.87718 5.04608 12.2232 5.04167 14.9792C5.03725 17.7352 6.00377 20.0819 7.94121 22.0193C9.87865 23.9568 12.2246 24.9226 14.9792 24.9167Z" fill="#2ED6A4"/>
</svg>
