<svg width="39" height="39" viewBox="0 0 39 39" fill="none" xmlns="http://www.w3.org/2000/svg">
<path d="M15.4375 5.375C18.2578 5.375 20.6283 6.34722 22.5801 8.29688C24.5314 10.2461 25.503 12.6157 25.5 15.4365V15.4375C25.5 16.5752 25.3195 17.6418 24.9609 18.6406C24.599 19.6489 24.1099 20.5337 23.4971 21.2998L23.2178 21.6494L33.418 31.8496L31.8496 33.418L21.6494 23.2178L21.2998 23.4971C20.5337 24.1099 19.6489 24.599 18.6406 24.9609C17.6418 25.3195 16.5752 25.5 15.4375 25.5C12.615 25.5 10.2452 24.5275 8.29688 22.5781C6.34853 20.6287 5.37608 18.2589 5.375 15.4375C5.37396 12.6162 6.34641 10.2463 8.29688 8.29688C10.2475 6.34735 12.6173 5.375 15.4375 5.375ZM15.4385 7.625C13.2737 7.62269 11.4186 8.38532 9.9043 9.90527C8.39112 11.4242 7.6285 13.2779 7.625 15.4365C7.62154 17.5965 8.38502 19.4514 9.90527 20.9717C11.4253 22.4916 13.2789 23.2534 15.4375 23.249C17.5998 23.249 19.4544 22.4878 20.9717 20.9717C22.489 19.4555 23.2511 17.6008 23.25 15.4375C23.2488 13.2745 22.4868 11.4204 20.9717 9.90527C19.4566 8.39019 17.6023 7.62741 15.4385 7.625Z" fill="#2ED6A4" stroke="#2ED6A4"/>
</svg>
