<svg width="36" height="34" viewBox="0 0 36 34" fill="none" xmlns="http://www.w3.org/2000/svg">
<path d="M32.483 2H25.8297L26.663 10.3333C26.663 10.3333 28.3297 12 30.8297 12C32.142 12.0017 33.4098 11.524 34.3947 10.6567C34.4992 10.5597 34.577 10.4375 34.6208 10.3018C34.6646 10.1661 34.6728 10.0214 34.6447 9.88167L33.468 2.83333C33.4287 2.60049 33.3082 2.38909 33.1279 2.23656C32.9476 2.08404 32.7192 2.00024 32.483 2Z" fill="#2ED6A4"/>
<path d="M25.8297 2L26.663 10.3333C26.663 10.3333 24.9964 12 22.4964 12C19.9964 12 18.3297 10.3333 18.3297 10.3333V2H25.8297Z" fill="#2ED6A4"/>
<path d="M18.3297 2V10.3333C18.3297 10.3333 16.663 12 14.163 12C11.663 12 9.99635 10.3333 9.99635 10.3333L10.8297 2H18.3297Z" fill="#2ED6A4"/>
<path d="M10.8297 2L4.17802 2C3.94135 1.99991 3.71231 2.08377 3.53165 2.23666C3.35098 2.38955 3.23041 2.60157 3.19135 2.835L2.01635 9.88333C1.98825 10.0231 1.99647 10.1678 2.04024 10.3034C2.08401 10.4391 2.16187 10.5613 2.26635 10.6583C2.81302 11.1417 4.03469 12.0017 5.82969 12.0017C8.32969 12.0017 9.99635 10.335 9.99635 10.335L10.8297 2Z" fill="#2ED6A4"/>
<path d="M3.34135 12V28.6667C3.34135 29.5507 3.69254 30.3986 4.31766 31.0237C4.94279 31.6488 5.79063 32 6.67469 32H30.008C30.8921 32 31.7399 31.6488 32.365 31.0237C32.9902 30.3986 33.3414 29.5507 33.3414 28.6667V12" fill="#2ED6A4"/>
<path d="M23.063 32V22C23.063 21.1159 22.7118 20.2681 22.0867 19.643C21.4616 19.0178 20.6137 18.6667 19.7297 18.6667H16.3964C15.5123 18.6667 14.6644 19.0178 14.0393 19.643C13.4142 20.2681 13.063 21.1159 13.063 22V32" fill="#2ED6A4"/>
<path d="M25.8297 2H32.483C32.7192 2.00024 32.9476 2.08404 33.1279 2.23656C33.3082 2.38909 33.4287 2.60049 33.468 2.83333L34.6447 9.88167C34.6728 10.0214 34.6646 10.1661 34.6208 10.3018C34.577 10.4375 34.4992 10.5597 34.3947 10.6567C33.4098 11.524 32.142 12.0017 30.8297 12C28.3297 12 26.663 10.3333 26.663 10.3333M25.8297 2L26.663 10.3333M25.8297 2H18.3297M26.663 10.3333C26.663 10.3333 24.9964 12 22.4964 12C19.9964 12 18.3297 10.3333 18.3297 10.3333M18.3297 10.3333V2M18.3297 10.3333C18.3297 10.3333 16.663 12 14.163 12C11.663 12 9.99635 10.3333 9.99635 10.3333L10.8297 2M18.3297 2H10.8297M10.8297 2L4.17802 2C3.94135 1.99991 3.71231 2.08377 3.53165 2.23666C3.35098 2.38955 3.23041 2.60157 3.19135 2.835L2.01635 9.88333C1.98825 10.0231 1.99647 10.1678 2.04024 10.3034C2.08401 10.4391 2.16187 10.5613 2.26635 10.6583C2.81302 11.1417 4.03469 12.0017 5.82969 12.0017C8.32969 12.0017 9.99635 10.335 9.99635 10.335L10.8297 2ZM3.34135 12V28.6667C3.34135 29.5507 3.69254 30.3986 4.31766 31.0237C4.94279 31.6488 5.79063 32 6.67469 32H30.008C30.8921 32 31.7399 31.6488 32.365 31.0237C32.9902 30.3986 33.3414 29.5507 33.3414 28.6667V12M23.063 32V22C23.063 21.1159 22.7118 20.2681 22.0867 19.643C21.4616 19.0178 20.6137 18.6667 19.7297 18.6667H16.3964C15.5123 18.6667 14.6644 19.0178 14.0393 19.643C13.4142 20.2681 13.063 21.1159 13.063 22V32" stroke="black" stroke-width="2.5" stroke-miterlimit="16"/>
</svg>
